HIERARCHY
ROOT Hips
{
    OFFSET   0.000000   0.000000   0.000000
    CHANNELS 6 Xposition Yposition Zposition Zrotation Xrotation Yrotation
    JOINT Chest
    {
        OFFSET   0.000000   8.007230   0.000000
        CHANNELS 3 Zrotation Xrotation Yrotation
        JOINT Chest2
        {
            OFFSET   0.000000  22.077100   0.000000
            CHANNELS 3 Zrotation Xrotation Yrotation
            JOINT Neck
            {
                OFFSET   0.000000  23.255100   0.000000
                CHANNELS 3 Zrotation Xrotation Yrotation
                JOINT Head
                {
                    OFFSET   0.000000  14.370100   1.956600
                    CHANNELS 3 Zrotation Xrotation Yrotation
                    End Site
                    {
                        OFFSET   0.000000  19.566000   0.000000
                    }
                }
            }
            JOINT LeftCollar
            {
                OFFSET   3.911900  19.017000  -0.467063
                CHANNELS 3 Zrotation Xrotation Yrotation
                JOINT LeftShoulder
                {
                    OFFSET  10.383700   0.000000   0.000000
                    CHANNELS 3 Zrotation Xrotation Yrotation
                    JOINT LeftElbow
                    {
                        OFFSET  26.662100   0.001193   0.000980
                        CHANNELS 3 Zrotation Xrotation Yrotation
                        JOINT LeftWrist
                        {
                            OFFSET  28.869000  -0.000059  -0.000082
                            CHANNELS 3 Zrotation Xrotation Yrotation
                            JOINT LeftFinger0
                            {
                                OFFSET   2.044650  -2.323450   3.252850
                                CHANNELS 3 Zrotation Xrotation Yrotation
                                JOINT LeftFinger01
                                {
                                    OFFSET   3.088130   0.000000   0.000000
                                    CHANNELS 3 Zrotation Xrotation Yrotation
                                    JOINT LeftFinger02
                                    {
                                        OFFSET   2.639460   0.000000   0.000000
                                        CHANNELS 3 Zrotation Xrotation Yrotation
                                        End Site
                                        {
                                            OFFSET   2.582190   0.000000   0.000000
                                        }
                                    }
                                }
                            }
                            JOINT LeftFinger1
                            {
                                OFFSET   8.364480   0.000000   3.252850
                                CHANNELS 3 Zrotation Xrotation Yrotation
                                JOINT LeftFinger11
                                {
                                    OFFSET   4.646930   0.000000   0.000000
                                    CHANNELS 3 Zrotation Xrotation Yrotation
                                    JOINT LeftFinger12
                                    {
                                        OFFSET   2.323470   0.000000   0.000000
                                        CHANNELS 3 Zrotation Xrotation Yrotation
                                        End Site
                                        {
                                            OFFSET   2.273050   0.000000   0.000000
                                        }
                                    }
                                }
                            }
                            JOINT LeftFinger2
                            {
                                OFFSET   8.364490   0.000016   1.078090
                                CHANNELS 3 Zrotation Xrotation Yrotation
                                JOINT LeftFinger21
                                {
                                    OFFSET   5.111610   0.000000   0.000000
                                    CHANNELS 3 Zrotation Xrotation Yrotation
                                    JOINT LeftFinger22
                                    {
                                        OFFSET   2.788150   0.000016   0.000000
                                        CHANNELS 3 Zrotation Xrotation Yrotation
                                        End Site
                                        {
                                            OFFSET   2.727660   0.000000   0.000000
                                        }
                                    }
                                }
                            }
                            JOINT LeftFinger3
                            {
                                OFFSET   7.899780   0.000015  -1.078090
                                CHANNELS 3 Zrotation Xrotation Yrotation
                                JOINT LeftFinger31
                                {
                                    OFFSET   4.646930   0.000000   0.000000
                                    CHANNELS 3 Zrotation Xrotation Yrotation
                                    JOINT LeftFinger32
                                    {
                                        OFFSET   2.323470   0.000000   0.000000
                                        CHANNELS 3 Zrotation Xrotation Yrotation
                                        End Site
                                        {
                                            OFFSET   2.273050   0.000000   0.000000
                                        }
                                    }
                                }
                            }
                            JOINT LeftFinger4
                            {
                                OFFSET   7.435090   0.000000  -3.252850
                                CHANNELS 3 Zrotation Xrotation Yrotation
                                JOINT LeftFinger41
                                {
                                    OFFSET   3.717550   0.000000   0.000000
                                    CHANNELS 3 Zrotation Xrotation Yrotation
                                    JOINT LeftFinger42
                                    {
                                        OFFSET   1.858770   0.000000   0.000000
                                        CHANNELS 3 Zrotation Xrotation Yrotation
                                        End Site
                                        {
                                            OFFSET   1.818440   0.000000   0.000000
                                        }
                                    }
                                }
                            }
                        }
                    }
                }
            }
            JOINT RightCollar
            {
                OFFSET  -3.911910  19.017000  -0.467062
                CHANNELS 3 Zrotation Xrotation Yrotation
                JOINT RightShoulder
                {
                    OFFSET -10.383700   0.000014   0.000000
                    CHANNELS 3 Zrotation Xrotation Yrotation
                    JOINT RightElbow
                    {
                        OFFSET -26.662100   0.001225   0.001091
                        CHANNELS 3 Zrotation Xrotation Yrotation
                        JOINT RightWrist
                        {
                            OFFSET -28.869000  -0.000020  -0.000085
                            CHANNELS 3 Zrotation Xrotation Yrotation
                            JOINT RightFinger0
                            {
                                OFFSET  -2.044650  -2.323490   3.252850
                                CHANNELS 3 Zrotation Xrotation Yrotation
                                JOINT RightFinger01
                                {
                                    OFFSET  -3.088130   0.000000   0.000000
                                    CHANNELS 3 Zrotation Xrotation Yrotation
                                    JOINT RightFinger02
                                    {
                                        OFFSET  -2.639460   0.000000   0.000000
                                        CHANNELS 3 Zrotation Xrotation Yrotation
                                        End Site
                                        {
                                            OFFSET  -2.582190   0.000000   0.000000
                                        }
                                    }
                                }
                            }
                            JOINT RightFinger1
                            {
                                OFFSET  -8.364480   0.000000   3.252850
                                CHANNELS 3 Zrotation Xrotation Yrotation
                                JOINT RightFinger11
                                {
                                    OFFSET  -4.646930   0.000000   0.000000
                                    CHANNELS 3 Zrotation Xrotation Yrotation
                                    JOINT RightFinger12
                                    {
                                        OFFSET  -2.323470   0.000000   0.000000
                                        CHANNELS 3 Zrotation Xrotation Yrotation
                                        End Site
                                        {
                                            OFFSET  -2.273050   0.000000   0.000000
                                        }
                                    }
                                }
                            }
                            JOINT RightFinger2
                            {
                                OFFSET  -8.364480   0.000000   1.078090
                                CHANNELS 3 Zrotation Xrotation Yrotation
                                JOINT RightFinger21
                                {
                                    OFFSET  -5.111620   0.000000   0.000000
                                    CHANNELS 3 Zrotation Xrotation Yrotation
                                    JOINT RightFinger22
                                    {
                                        OFFSET  -2.788160   0.000000   0.000000
                                        CHANNELS 3 Zrotation Xrotation Yrotation
                                        End Site
                                        {
                                            OFFSET  -2.727660   0.000000   0.000000
                                        }
                                    }
                                }
                            }
                            JOINT RightFinger3
                            {
                                OFFSET  -7.899780   0.000000  -1.078090
                                CHANNELS 3 Zrotation Xrotation Yrotation
                                JOINT RightFinger31
                                {
                                    OFFSET  -4.646930   0.000000   0.000000
                                    CHANNELS 3 Zrotation Xrotation Yrotation
                                    JOINT RightFinger32
                                    {
                                        OFFSET  -2.323470   0.000000   0.000000
                                        CHANNELS 3 Zrotation Xrotation Yrotation
                                        End Site
                                        {
                                            OFFSET  -2.273050   0.000000   0.000000
                                        }
                                    }
                                }
                            }
                            JOINT RightFinger4
                            {
                                OFFSET  -7.435090   0.000000  -3.252850
                                CHANNELS 3 Zrotation Xrotation Yrotation
                                JOINT RightFinger41
                                {
                                    OFFSET  -3.717550   0.000000   0.000000
                                    CHANNELS 3 Zrotation Xrotation Yrotation
                                    JOINT RightFinger42
                                    {
                                        OFFSET  -1.858760   0.000000   0.000000
                                        CHANNELS 3 Zrotation Xrotation Yrotation
                                        End Site
                                        {
                                            OFFSET  -1.818440   0.000000   0.000000
                                        }
                                    }
                                }
                            }
                        }
                    }
                }
            }
        }
    }
    JOINT LeftHip
    {
        OFFSET   9.783030   0.000000   0.000000
        CHANNELS 3 Zrotation Xrotation Yrotation
        JOINT LeftKnee
        {
            OFFSET   0.000063 -41.789100   0.000608
            CHANNELS 3 Zrotation Xrotation Yrotation
            JOINT LeftAnkle
            {
                OFFSET   0.000048 -41.133200  -0.000184
                CHANNELS 3 Zrotation Xrotation Yrotation
                JOINT LeftToe
                {
                    OFFSET   0.000000  -6.358960  14.674500
                    CHANNELS 3 Zrotation Xrotation Yrotation
                    End Site
                    {
                        OFFSET   0.000000   0.000000   3.913200
                    }
                }
            }
        }
    }
    JOINT RightHip
    {
        OFFSET  -9.783030   0.000000   0.000000
        CHANNELS 3 Zrotation Xrotation Yrotation
        JOINT RightKnee
        {
            OFFSET   0.000071 -41.789100   0.001239
            CHANNELS 3 Zrotation Xrotation Yrotation
            JOINT RightAnkle
            {
                OFFSET   0.000037 -41.133200  -0.000166
                CHANNELS 3 Zrotation Xrotation Yrotation
                JOINT RightToe
                {
                    OFFSET   0.000000  -6.358960  14.674500
                    CHANNELS 3 Zrotation Xrotation Yrotation
                    End Site
                    {
                        OFFSET   0.000000   0.000000   3.913200
                    }
                }
            }
        }
    }
}
MOTION
Frames: 4
Frame Time:   0.016667
 -0.389186  89.558000  -3.531780  -2.298470  -5.510480  -6.808470   0.897420   2.068450   0.526309   1.777530   4.144820   1.021110   0.465375   1.416870  -0.019451   0.754158   2.872230   1.008380  -3.936580  -0.381573   1.062880 -77.968700  13.971700   1.923800  -0.682215  -4.358360 -14.837500  14.610700 -11.221100   6.249440  42.107400  32.892700 -65.311300 -26.250400   0.001117   0.000632  -8.125200   0.004098  -0.002057 -28.551200   5.376680  -9.760570 -23.737100  -0.004800  -0.008439 -16.627300  -0.002546  -0.013223 -28.366900   0.109889  -0.230663 -34.764500   0.000213   0.005836 -23.153100  -0.005961  -0.004395 -28.015200   0.108617  -0.231431 -32.056700  -0.001354   0.001141 -21.349700  -0.003635  -0.003790 -32.160700   0.123074  -0.221938 -48.221600  -0.003021   0.001902 -32.128700  -0.003770  -0.005139   7.252650   0.112625   4.720400  72.679700  10.928800  -7.235290   0.417816 -12.274000  10.955800 -13.157000   1.032470   0.489157 -46.423800  35.864200  75.139800  19.658800   0.004626  -0.002011   4.829400   0.002054  -0.003279  29.964800   6.802490  11.609700  25.077500   0.011155  -0.000110  17.554200   0.009729  -0.001463  28.304800   3.612120   6.670340  36.408500   0.001894   0.007778  24.248100  -0.002262   0.002788  27.840600   2.968310   5.598320  31.948700   0.000468  -0.011409  21.277800   0.002341   0.005817  36.637600  -0.146237  -0.213283  54.956800   0.000560   0.004719  36.601200   0.010712  -0.003990   1.038070   7.707000   3.606470   1.554630   0.143895   4.209830  -1.811350  -3.248370   2.800280  -0.000000   0.000000  -0.000000   4.226260   4.648550  -2.290560  -1.866700   4.561420  -5.361750  -1.225910  -4.628340  -2.242430   0.000000   0.000000  -0.000000
 -0.382831  89.558000  -3.514890  -2.303640  -5.512630  -6.808210   0.897432   2.075230   0.531206   1.777320   4.158440   1.030820   0.456666   1.416660  -0.019456   0.745363   2.871990   0.993586  -3.941700  -0.386871   1.062720 -77.962400  13.997700   1.921470  -0.690671  -4.366630 -14.847500  14.616000 -11.241700   6.224190  42.102800  32.901200 -65.328500 -26.259300   0.001084   0.000602  -8.129650   0.004091  -0.002073 -28.564600   5.376680  -9.760570 -23.747400  -0.004770  -0.008452 -16.627300  -0.002525  -0.013242 -28.367000   0.109842  -0.225908 -34.775700   0.000214   0.005838 -23.160600  -0.005962  -0.004364 -28.015200   0.108418  -0.226661 -32.056400  -0.001355   0.001141 -21.349700  -0.003634  -0.003764 -32.160700   0.123021  -0.217368 -48.221600  -0.003023   0.001904 -32.128700  -0.003771  -0.005123   7.253800   0.103509   4.720390  72.691500  10.952000  -7.235460   0.441399 -12.297500  10.951600 -13.143900   1.045180   0.482769 -46.414600  35.876400  75.163500  19.633500   0.004617  -0.001989   4.816750   0.002050  -0.003276  29.959400   6.828290  11.655100  25.077700   0.011156  -0.000114  17.554300   0.009730  -0.001463  28.299900   3.633150   6.709850  36.398000   0.001891   0.007782  24.241100  -0.002268   0.002787  27.838300   2.981180   5.623350  31.936600   0.000467  -0.011424  21.269700   0.002339   0.005816  36.627200  -0.146389  -0.209816  54.941100   0.000555   0.004720  36.590800   0.010711  -0.003991   1.038800   7.738880   3.606320   1.554150   0.114886   4.213540  -1.809390  -3.249390   2.800230   0.000000   0.000000   0.000000   4.218910   4.676840  -2.292880  -1.853410   4.542820  -5.398560  -1.233610  -4.628490  -2.205780  -0.000000   0.000000  -0.000000
 -0.372489  89.558100  -3.485970  -2.313400  -5.517740  -6.807990   0.897542   2.088450   0.539794   1.777120   4.185020   1.047810   0.447957   1.416460  -0.019460   0.736999   2.871760   0.970205  -3.949090  -0.394421   1.062560 -77.950000  14.042600   1.914120  -0.703370  -4.377830 -14.871500  14.622700 -11.262700   6.188180  42.101800  32.918400 -65.358100 -26.274600   0.001007   0.000553  -8.137280   0.004070  -0.002114 -28.577900   5.376680  -9.760570 -23.757800  -0.004700  -0.008486 -16.627100  -0.002479  -0.013292 -28.367000   0.109796  -0.217955 -34.791000   0.000214   0.005841 -23.170800  -0.005965  -0.004291 -28.015100   0.108220  -0.218681 -32.055900  -0.001359   0.001141 -21.349700  -0.003632  -0.003702 -32.160700   0.122968  -0.209718 -48.221600  -0.003026   0.001906 -32.128700  -0.003772  -0.005083   7.257710   0.089066   4.720380  72.709100  10.996500  -7.233740   0.479402 -12.338000  10.940200 -13.127900   1.061970   0.476381 -46.407500  35.897300  75.200300  19.596700   0.004586  -0.001947   4.798360   0.002035  -0.003264  29.950000   6.863570  11.717400  25.077900   0.011156  -0.000120  17.554500   0.009731  -0.001463  28.294900   3.654170   6.749360  36.378100   0.001885   0.007790  24.227800  -0.002284   0.002785  27.835900   2.994040   5.648380  31.915100   0.000463  -0.011464  21.255400   0.002337   0.005813  36.609200  -0.146541  -0.203861  54.914200   0.000542   0.004720  36.572900   0.010705  -0.003993   1.041360   7.787360   3.606310   1.554000   0.081363   4.219720  -1.805460  -3.254140   2.800200   0.000000   0.000000  -0.000000   4.206630   4.725100  -2.300050  -1.831060   4.510540  -5.459580  -1.243290  -4.628910  -2.140390  -0.000000   0.000000   0.000000
 -0.365065  89.558200  -3.460550  -2.324610  -5.527490  -6.809730   0.897815   2.103990   0.547383   1.777270   4.216220   1.062760   0.449486   1.416810  -0.019401   0.739590   2.872380   0.955800  -3.953150  -0.397286   1.062600 -77.933200  14.081900   1.900930  -0.711159  -4.381560 -14.908700  14.623800 -11.259500   6.170760  42.114300  32.950200 -65.382500 -26.290700   0.000889   0.000522  -8.145550   0.004035  -0.002177 -28.577900   5.372740  -9.752670 -23.754900  -0.004594  -0.008540 -16.627000  -0.002416  -0.013370 -28.367000   0.109912  -0.209912 -34.795400   0.000212   0.005845 -23.173700  -0.005967  -0.004182 -28.015000   0.108695  -0.210610 -32.055700  -0.001362   0.001141 -21.352100  -0.003631  -0.003611 -32.160700   0.123101  -0.201969 -48.225100  -0.003030   0.001905 -32.128600  -0.003774  -0.005023   7.266340   0.081347   4.726070  72.715600  11.044400  -7.211930   0.506546 -12.373000  10.924300 -13.124900   1.065010   0.484631 -46.425100  35.918600  75.228700  19.576100   0.004524  -0.001900   4.788060   0.002004  -0.003240  29.944600   6.875740  11.739800  25.078000   0.011155  -0.000128  17.554500   0.009733  -0.001467  28.296000   3.649370   6.740910  36.351300   0.001879   0.007801  24.210000  -0.002309   0.002781  27.834800   2.992450   5.646000  31.893400   0.000457  -0.011528  21.240900   0.002339   0.005809  36.591500  -0.145287  -0.197972  54.887600   0.000520   0.004721  36.555200   0.010693  -0.003995   1.048090   7.816680   3.608000   1.554320   0.077345   4.225900  -1.800580  -3.265850   2.800260   0.000000   0.000000  -0.000000   4.196150   4.769740  -2.313830  -1.811320   4.479170  -5.513900  -1.244400  -4.630350  -2.073180  -0.000000   0.000000   0.000000
